<svg
      width="64"
      height="64"
      viewBox="0 0 100 100"
      xmlns="http://www.w3.org/2000/svg"
    >
      <circle cx="50" cy="50" r="50" fill="#000000" />
      
      <g fill="white">
        <g>
          <circle cx="22" cy="30" r="1.5" />
          <circle cx="26" cy="32" r="2" />
          <circle cx="30" cy="35" r="1.5" />
          <circle cx="24" cy="40" r="2.5" />
          <circle cx="28" cy="43" r="1.5" />
          <circle cx="32" cy="46" r="2" />
          <circle cx="26" cy="50" r="1.5" />
          <circle cx="30" cy="53" r="2" />
          <circle cx="23" cy="58" r="1.5" />
          <circle cx="27" cy="61" r="2" />
          <circle cx="31" cy="64" r="1.5" />
          <circle cx="25" cy="68" r="2" />
        </g>
        
        <g>
          <path d="M50 20 Q45 35 42 50 Q45 65 48 75 L52 75 Q55 65 58 50 Q55 35 50 20 Z" />
          <ellipse cx="50" cy="48" rx="3" ry="1.5" />
        </g>
        
        <g>
          <path d="M68 25 Q72 28 75 32 Q78 36 78 40 Q78 44 75 48 Q72 52 68 55 L68 75 L72 75 L72 55 Q76 52 79 48 Q82 44 82 40 Q82 36 79 32 Q76 28 72 25 Z" />
          <rect x="68" y="28" width="2" height="3" rx="1" />
          <rect x="68" y="34" width="2" height="3" rx="1" />
          <rect x="68" y="40" width="2" height="3" rx="1" />
          <rect x="68" y="46" width="2" height="3" rx="1" />
          <rect x="68" y="58" width="2" height="3" rx="1" />
          <rect x="68" y="64" width="2" height="3" rx="1" />
          <rect x="68" y="70" width="2" height="3" rx="1" />
        </g>
        
        <path d="M35 45 Q40 42 42 48" stroke="white" strokeWidth="0.8" fill="none" opacity="0.5" />
        <path d="M58 48 Q62 45 65 50" stroke="white" strokeWidth="0.8" fill="none" opacity="0.5" />
      </g>
      
      <circle cx="50" cy="50" r="46" fill="none" stroke="white" strokeWidth="0.2" opacity="0.3" />
      <circle cx="50" cy="50" r="43" fill="none" stroke="white" strokeWidth="0.2" opacity="0.2" />
    </svg>