 <svg
      width="64"
      height="64"
      viewBox="0 0 100 100"
      xmlns="http://www.w3.org/2000/svg"
    >
      <path d="M25 13.4 L75 13.4 L93.3 50 L75 86.6 L25 86.6 L6.7 50 Z" fill="#000000" />
      
      <g fill="white">
        <path d="M18 30 L18 70 L32 70 L38 64 L38 55 L32 52 L38 48 L38 39 L32 33 L32 30 Z M24 36 L30 36 L30 42 L24 42 Z M24 58 L30 58 L30 64 L24 64 Z" />
        
        <path d="M35 70 L35 52 L41 30 L47 30 L53 52 L53 70 L47 70 L47 58 L41 58 L41 70 Z M41 46 L47 46 L44 36 Z" />
        
        <path d="M56 30 L56 70 L62 70 L62 52 L68 52 L74 46 L74 36 L68 30 Z M62 36 L68 36 L68 46 L62 46 Z" />
      </g>
      
      <path d="M30 15 L70 15" stroke="white" strokeWidth="1" opacity="0.4" />
      <path d="M85 50 L87 50" stroke="white" strokeWidth="1" opacity="0.4" />
      <path d="M30 85 L70 85" stroke="white" strokeWidth="1" opacity="0.4" />
    </svg>