<svg
      width="64"
      height="64"
      viewBox="0 0 100 100"
      xmlns="http://www.w3.org/2000/svg"
    >
      <rect width="100" height="100" fill="#000000" />
      
      <g fill="white">
        <path d="M15 20 L15 80 L40 80 L45 75 L45 65 L40 60 L45 55 L45 45 L40 40 L40 35 L45 30 L50 20 L55 30 L60 40 L60 80 L70 80 L70 55 L80 55 L85 50 L85 40 L80 35 L80 30 L85 25 L85 20 L70 20 L70 40 L75 40 L75 45 L70 45 L55 45 L50 35 L45 45 L40 45 L40 50 L45 50 L45 55 L40 55 L40 65 L45 65 L45 70 L40 70 L25 70 L25 30 L40 30 L40 35 L25 35 L25 20 Z" 
              fillRule="evenodd" />
      </g>
      
      <rect x="5" y="5" width="8" height="1" fill="white" opacity="0.5" />
      <rect x="87" y="5" width="8" height="1" fill="white" opacity="0.5" />
      <rect x="5" y="94" width="8" height="1" fill="white" opacity="0.5" />
      <rect x="87" y="94" width="8" height="1" fill="white" opacity="0.5" />
    </svg>